<svg width="20" height="20" viewBox="0 0 20 20" fill="none" xmlns="http://www.w3.org/2000/svg">
<path d="M10 3.69391L9.49767 4.16624C9.56276 4.23217 9.64078 4.28461 9.72709 4.32043C9.8134 4.35625 9.90622 4.37472 10 4.37472C10.0938 4.37472 10.1866 4.35625 10.2729 4.32043C10.3592 4.28461 10.4372 4.23217 10.5023 4.16624L10 3.69391ZM7.60558 15.3404C6.19535 14.255 4.65395 13.195 3.4307 11.8507C2.23256 10.5318 1.39535 8.99398 1.39535 6.99748H0C0 9.41907 1.03256 11.2666 2.38791 12.7553C3.71814 14.2177 5.41488 15.3895 6.7414 16.4104L7.60558 15.3404ZM1.39535 6.99748C1.39535 5.04459 2.52558 3.40597 4.06884 2.71655C5.56837 2.04712 7.58326 2.22424 9.49767 4.16624L10.5023 3.22249C8.23256 0.918075 5.59442 0.537488 3.48837 1.4776C1.42884 2.39773 0 4.53411 0 6.99748H1.39535ZM6.7414 16.4104C7.2186 16.7774 7.73023 17.168 8.24837 17.4641C8.76651 17.7602 9.35814 18 10 18V16.6375C9.71163 16.6375 9.37302 16.5285 8.95256 16.2878C8.53116 16.048 8.09488 15.7174 7.60558 15.3404L6.7414 16.4104ZM13.2586 16.4104C14.5851 15.3886 16.2819 14.2186 17.6121 12.7553C18.9674 11.2657 20 9.41907 20 6.99748H18.6047C18.6047 8.99398 17.7674 10.5318 16.5693 11.8507C15.346 13.195 13.8047 14.255 12.3944 15.3404L13.2586 16.4104ZM20 6.99748C20 4.53411 18.5721 2.39773 16.5116 1.4776C14.4056 0.537488 11.7693 0.918075 9.49767 3.22158L10.5023 4.16624C12.4167 2.22515 14.4316 2.04712 15.9312 2.71655C17.4744 3.40597 18.6047 5.04368 18.6047 6.99748H20ZM12.3944 15.3404C11.9051 15.7174 11.4688 16.048 11.0474 16.2878C10.626 16.5276 10.2884 16.6375 10 16.6375V18C10.6419 18 11.2335 17.7593 11.7516 17.4641C12.2707 17.168 12.7814 16.7774 13.2586 16.4104L12.3944 15.3404Z" fill="black"/>
</svg>
