<?xml version="1.0" encoding="utf-8"?><svg xmlns="http://www.w3.org/2000/svg" xmlns:xlink="http://www.w3.org/1999/xlink"><symbol viewBox="0 0 256 256" id="bag" xmlns="http://www.w3.org/2000/svg"><path d="M216 40H40a16 16 0 0 0-16 16v144a16 16 0 0 0 16 16h176a16 16 0 0 0 16-16V56a16 16 0 0 0-16-16Zm0 160H40V56h176v144ZM176 88a48 48 0 0 1-96 0 8 8 0 0 1 16 0 32 32 0 0 0 64 0 8 8 0 0 1 16 0Z"/></symbol><symbol viewBox="0 0 256 256" id="facebook-logo" xmlns="http://www.w3.org/2000/svg"><path d="M128 20a108 108 0 1 0 108 108A108.12 108.12 0 0 0 128 20Zm12 191.13V156h20a12 12 0 0 0 0-24h-20v-20a12 12 0 0 1 12-12h16a12 12 0 0 0 0-24h-16a36 36 0 0 0-36 36v20H96a12 12 0 0 0 0 24h20v55.13a84 84 0 1 1 24 0Z"/></symbol><symbol viewBox="0 0 256 256" id="google-logo" xmlns="http://www.w3.org/2000/svg"><path d="M228 128a100 100 0 1 1-22.86-63.64 12 12 0 0 1-18.51 15.28A76 76 0 1 0 203.05 140H128a12 12 0 0 1 0-24h88a12 12 0 0 1 12 12Z"/></symbol><symbol viewBox="0 0 256 256" id="heart" xmlns="http://www.w3.org/2000/svg"><path d="M178 40c-20.65 0-38.73 8.88-50 23.89C116.73 48.88 98.65 40 78 40a62.07 62.07 0 0 0-62 62c0 70 103.79 126.66 108.21 129a8 8 0 0 0 7.58 0C136.21 228.66 240 172 240 102a62.07 62.07 0 0 0-62-62Zm-50 174.8c-18.26-10.64-96-59.11-96-112.8a46.06 46.06 0 0 1 46-46c19.45 0 35.78 10.36 42.6 27a8 8 0 0 0 14.8 0c6.82-16.67 23.15-27 42.6-27a46.06 46.06 0 0 1 46 46c0 53.61-77.76 102.15-96 112.8Z"/></symbol><symbol viewBox="0 0 256 256" id="instagram-logo" xmlns="http://www.w3.org/2000/svg"><path d="M128 80a48 48 0 1 0 48 48 48.05 48.05 0 0 0-48-48Zm0 72a24 24 0 1 1 24-24 24 24 0 0 1-24 24Zm48-132H80a60.07 60.07 0 0 0-60 60v96a60.07 60.07 0 0 0 60 60h96a60.07 60.07 0 0 0 60-60V80a60.07 60.07 0 0 0-60-60Zm36 156a36 36 0 0 1-36 36H80a36 36 0 0 1-36-36V80a36 36 0 0 1 36-36h96a36 36 0 0 1 36 36ZM196 76a16 16 0 1 1-16-16 16 16 0 0 1 16 16Z"/></symbol><symbol viewBox="0 0 256 256" id="pinterest-logo" xmlns="http://www.w3.org/2000/svg"><path d="M228 112c0 23.6-8.29 45.23-23.35 60.88C190.52 187.57 171.33 196 152 196c-15.45 0-26.78-4.18-34.89-9.31l-9.43 40.06a12 12 0 1 1-23.36-5.5l32-136a12 12 0 1 1 23.36 5.5l-16.45 69.93C126.72 164.86 135.16 172 152 172c25.56 0 52-22.45 52-60a68 68 0 1 0-126.91 34 12 12 0 0 1-20.77 12A92 92 0 1 1 228 112Z"/></symbol><symbol viewBox="0 0 256 256" id="search" xmlns="http://www.w3.org/2000/svg"><path d="m229.66 218.34-50.07-50.06a88.11 88.11 0 1 0-11.31 11.31l50.06 50.07a8 8 0 0 0 11.32-11.32ZM40 112a72 72 0 1 1 72 72 72.08 72.08 0 0 1-72-72Z"/></symbol><symbol viewBox="0 0 256 256" id="twitter-logo" xmlns="http://www.w3.org/2000/svg"><path d="m245.66 77.66-29.9 29.9C209.72 177.58 150.67 232 80 232c-14.52 0-26.49-2.3-35.58-6.84-7.33-3.67-10.33-7.6-11.08-8.72a8 8 0 0 1 3.85-11.93c.26-.1 24.24-9.31 39.47-26.84a110.93 110.93 0 0 1-21.88-24.2c-12.4-18.41-26.28-50.39-22-98.18a8 8 0 0 1 13.65-4.92c.35.35 33.28 33.1 73.54 43.72V88a47.87 47.87 0 0 1 14.36-34.3A46.87 46.87 0 0 1 168.1 40a48.66 48.66 0 0 1 41.47 24H240a8 8 0 0 1 5.66 13.66Z"/></symbol><symbol viewBox="0 0 256 256" id="user" xmlns="http://www.w3.org/2000/svg"><path d="M230.92 212c-15.23-26.33-38.7-45.21-66.09-54.16a72 72 0 1 0-73.66 0c-27.39 8.94-50.86 27.82-66.09 54.16a8 8 0 1 0 13.85 8c18.84-32.56 52.14-52 89.07-52s70.23 19.44 89.07 52a8 8 0 1 0 13.85-8ZM72 96a56 56 0 1 1 56 56 56.06 56.06 0 0 1-56-56Z"/></symbol></svg>