<svg width="106" height="19" viewBox="0 0 106 19" fill="none" xmlns="http://www.w3.org/2000/svg">
<path d="M0.740767 15.1211C1.59377 15.9276 2.63982 16.5499 3.87891 16.9882C4.39969 17.1723 4.91149 17.3126 5.41431 17.409C5.92611 17.5054 6.37955 17.5536 6.77463 17.5536C7.53784 17.5536 8.22473 17.4704 8.8353 17.3038C9.44587 17.1285 9.96216 16.883 10.3842 16.5675C10.7882 16.2607 11.098 15.9144 11.3135 15.5287C11.529 15.1343 11.6367 14.7179 11.6367 14.2796C11.6367 13.3679 11.08 12.5133 9.96665 11.7156C9.5177 11.3912 9.02386 11.0844 8.48512 10.7952C7.94638 10.5059 7.21909 10.1377 6.30323 9.69066C5.45921 9.27866 4.74987 8.9105 4.17521 8.58616C3.60954 8.25306 3.10223 7.90242 2.65329 7.53426C1.54887 6.62261 0.996667 5.63207 0.996667 4.56263C0.996667 3.09873 1.49949 1.98985 2.50513 1.23599C3.59158 0.411996 5.26167 0 7.51539 0C8.47614 0 9.43689 0.109573 10.3976 0.328721C11.3674 0.547867 12.3595 0.929182 13.3742 1.47267L12.6199 3.12941C12.162 2.73495 11.3719 2.35363 10.2495 1.98547C9.74666 1.82768 9.24833 1.70058 8.75449 1.60415C8.26962 1.50773 7.84761 1.45951 7.48845 1.45951C6.402 1.45951 5.549 1.64798 4.92945 2.02491C4.18419 2.4895 3.81157 3.16009 3.81157 4.03668C3.81157 4.40484 3.95074 4.7511 4.22909 5.07543C4.51641 5.391 4.92945 5.71534 5.46819 6.04844C5.99795 6.37278 6.56362 6.67082 7.16521 6.94256C8.75449 7.66136 10.0519 8.31003 11.0576 8.88858C12.4134 9.66874 13.3787 10.5848 13.9533 11.6367C14.2586 12.1977 14.4112 12.8245 14.4112 13.517C14.4112 14.3585 14.2227 15.1123 13.8456 15.7785C13.4774 16.4448 12.9477 17.0189 12.2563 17.501C11.5739 17.9832 10.7748 18.3513 9.8589 18.6055C8.95203 18.8597 7.9823 18.9869 6.94972 18.9869C5.69266 18.9869 4.55233 18.8334 3.52873 18.5266C2.24474 18.1497 1.0685 17.5624 0 16.7647L0.740767 15.1211ZM26.3325 0.420759L31.3698 12.4519C31.8636 13.6441 32.5236 15.0904 33.3497 16.791C33.6639 17.4397 33.9602 18.0314 34.2386 18.5661H30.3058C30.3148 18.5661 30.2788 18.4434 30.198 18.1979C29.9376 17.409 29.6637 16.6113 29.3764 15.8048L28.7838 14.1481C28.6491 14.1306 28.2675 14.0999 27.639 14.0561C27.1002 14.0298 26.3191 14.0166 25.2955 14.0166H22.6826C21.8206 14.0166 21.1472 14.0298 20.6623 14.0561L20.0562 14.0955L19.6387 14.1218L18.4535 16.9093L17.9956 17.9612L17.7531 18.5661H15.679L15.8406 18.2505L16.8911 16.1467C17.385 15.1737 17.8788 14.1569 18.3727 13.0962L19.0596 11.5972L24.0564 0.420759H26.3325ZM20.2044 12.6491C20.6803 12.6754 21.1023 12.6886 21.4704 12.6886H22.5479H25.3089C26.9072 12.6886 27.8904 12.6754 28.2585 12.6491L24.3257 3.05052L20.2044 12.6491ZM37.0466 6.39031C37.0466 5.19816 37.0107 3.83945 36.9389 2.31419C36.9209 1.94602 36.8895 1.31488 36.8446 0.420759C37.4551 0.438294 37.9086 0.44706 38.2049 0.44706C38.6718 0.44706 39.3542 0.438294 40.2521 0.420759C40.1803 1.69181 40.1264 2.96286 40.0905 4.23391C40.0725 5.18062 40.0635 5.89942 40.0635 6.39031V12.7675C40.0635 13.4074 40.0725 14.2445 40.0905 15.2789L40.1309 16.7121L40.1443 17.2118C42.7033 17.1679 44.6293 17.1066 45.9223 17.0277C46.6586 16.9926 47.5116 16.9444 48.4813 16.883V18.5661H36.8446C36.8895 17.707 36.9209 17.1022 36.9389 16.7516C37.0107 15.2789 37.0466 13.9509 37.0466 12.7675V6.39031ZM54.3413 9.63806C54.3413 12.3467 54.8306 14.3497 55.8094 15.6471C56.2942 16.2957 56.9093 16.7779 57.6545 17.0934C58.3998 17.4002 59.2842 17.5536 60.3078 17.5536C62.2563 17.5536 63.7647 16.9839 64.8332 15.8443C66.0544 14.5382 66.6649 12.4957 66.6649 9.71696V6.35087C66.6649 5.18501 66.629 3.83945 66.5572 2.31419C66.5302 1.91972 66.4988 1.28858 66.4629 0.420759H68.537C68.4473 2.05121 68.3889 3.31788 68.362 4.22076C68.344 5.14994 68.335 5.85998 68.335 6.35087V9.74325C68.335 12.9428 67.5853 15.3096 66.0858 16.8436C64.6761 18.2812 62.6064 19 59.8768 19C58.2516 19 56.8913 18.794 55.7959 18.382C54.7005 17.9612 53.8205 17.352 53.1561 16.5543C52.5455 15.8268 52.1055 14.9458 51.8362 13.9114C51.5668 12.877 51.4321 11.6937 51.4321 10.3612V6.45606C51.4321 5.25513 51.3962 3.88328 51.3244 2.34049C51.3064 1.96355 51.275 1.32365 51.2301 0.420759H54.5298C54.458 1.69181 54.4041 2.97601 54.3682 4.27336C54.3503 5.2376 54.3413 5.96517 54.3413 6.45606V9.63806ZM71.1374 18.5661C71.73 17.7158 72.5336 16.5105 73.5482 14.9502C74.0061 14.2577 74.4775 13.5082 74.9624 12.7017L79.1646 6.03529C79.2723 5.87751 79.3486 5.75917 79.3935 5.68028C80.7493 3.61153 81.5889 2.30542 81.9121 1.76194C78.9401 1.797 76.4439 1.87151 74.4237 1.98547C73.3911 2.04683 72.6099 2.10381 72.0801 2.1564V0.407613C72.9601 0.416379 74.1274 0.420759 75.5819 0.420759H78.2487C78.7605 0.429528 79.4294 0.433911 80.2555 0.433911H81.764H82.9223H83.9189C84.3409 0.433911 84.6642 0.429528 84.8887 0.420759H86.0065C85.5306 1.03437 84.8258 2.08189 83.892 3.56332C83.452 4.25583 82.9537 5.0842 82.397 6.04844L78.3834 12.7017C77.3777 14.3497 76.4888 15.875 75.7166 17.2775C78.7336 17.2424 81.4587 17.1636 83.892 17.0408C85.0144 16.9882 85.8853 16.9313 86.5049 16.8699V18.5924L71.1374 18.5661ZM98.094 0.420759L103.131 12.4519C103.625 13.6441 104.285 15.0904 105.111 16.791C105.425 17.4397 105.722 18.0314 106 18.5661H102.067C102.076 18.5661 102.04 18.4434 101.959 18.1979C101.699 17.409 101.425 16.6113 101.138 15.8048L100.545 14.1481C100.411 14.1306 100.029 14.0999 99.4005 14.0561C98.8617 14.0298 98.0806 14.0166 97.057 14.0166H94.4441C93.5821 14.0166 92.9087 14.0298 92.4238 14.0561L91.8177 14.0955L91.4002 14.1218L90.215 16.9093L89.757 17.9612L89.5146 18.5661H87.4405L87.6021 18.2505L88.6526 16.1467C89.1465 15.1737 89.6403 14.1569 90.1342 13.0962L90.8211 11.5972L95.8179 0.420759H98.094ZM91.9659 12.6491C92.4418 12.6754 92.8638 12.6886 93.2319 12.6886H94.3094H97.0704C98.6687 12.6886 99.6519 12.6754 100.02 12.6491L96.0872 3.05052L91.9659 12.6491Z" fill="white"/>
</svg>
