<svg xmlns="http://www.w3.org/2000/svg" width="128" height="128" fill="none"><circle cx="64" cy="64" r="64" fill="#fff"/><path fill="#000" d="M36.552 79.008h6.528c.064 1.088.32 2.432.768 4.032.448 1.536 1.312 3.04 2.592 4.512 1.28 1.472 3.136 2.752 5.568 3.84 2.432 1.024 5.664 1.536 9.696 1.536 5.056 0 9.088-.96 12.096-2.88 3.072-1.92 4.608-4.96 4.608-9.12 0-3.328-.96-5.984-2.88-7.968s-4.352-3.648-7.296-4.992c-2.88-1.408-6.016-2.656-9.408-3.744-3.392-1.088-6.56-2.4-9.504-3.936-2.88-1.536-5.28-3.456-7.2-5.76s-2.88-5.344-2.88-9.12c0-2.88.576-5.44 1.728-7.68 1.216-2.24 2.816-4.096 4.8-5.568 2.048-1.472 4.384-2.592 7.008-3.36 2.688-.768 5.504-1.152 8.448-1.152 2.816 0 5.504.352 8.064 1.056 2.624.64 4.96 1.632 7.008 2.976 2.048 1.28 3.744 2.88 5.088 4.8 1.344 1.856 2.208 3.968 2.592 6.336h-6.528c-.512-3.776-2.24-6.528-5.184-8.256-2.88-1.792-6.4-2.688-10.56-2.688-2.496 0-4.704.32-6.624.96-1.92.576-3.552 1.376-4.896 2.4-1.28.96-2.272 2.112-2.976 3.456a9.92 9.92 0 0 0-.96 4.32c0 2.752.992 4.96 2.976 6.624 1.984 1.664 4.448 3.136 7.392 4.416 3.008 1.28 6.24 2.496 9.696 3.648 3.52 1.152 6.752 2.592 9.696 4.32 3.008 1.664 5.504 3.776 7.488 6.336 1.984 2.496 2.976 5.728 2.976 9.696 0 2.88-.576 5.504-1.728 7.872-1.152 2.368-2.784 4.384-4.896 6.048-2.112 1.664-4.672 2.944-7.68 3.84-2.944.896-6.272 1.344-9.984 1.344-3.648 0-7.008-.416-10.08-1.248-3.072-.896-5.76-2.112-8.064-3.648-2.24-1.6-4.032-3.52-5.376-5.76-1.28-2.24-1.984-4.736-2.112-7.488Z"/></svg>